<svg width="1024" height="1024" viewBox="0 0 1024 1024" fill="none" xmlns="http://www.w3.org/2000/svg">
<path fill-rule="evenodd" clip-rule="evenodd" d="M487.5 53.5C518.368 52.2301 549.035 54.0634 579.5 59C595.401 62.7446 610.734 68.078 625.5 75C630.007 78.6763 634.341 82.5096 638.5 86.5C720.472 118.312 773.306 176.645 797 261.5C808.394 304.941 809.394 348.608 800 392.5C798.62 402.88 792.787 409.047 782.5 411C781.196 411.804 780.529 412.971 780.5 414.5C803.81 429.803 813.644 451.469 810 479.5C801.486 522.681 775.652 548.514 732.5 557C720.26 558.298 708.427 556.798 697 552.5C679.208 575.302 658.041 594.135 633.5 609C674.177 629.666 710.343 656.499 742 689.5C753.409 678.095 764.076 666.095 774 653.5C775.769 649.693 776.602 645.693 776.5 641.5C765.085 599.897 777.085 567.064 812.5 543C831.91 530.991 852.577 527.991 874.5 534C883.851 540.789 885.018 548.956 878 558.5C866.851 570.645 856.851 583.645 848 597.5C847.333 599.167 847.333 600.833 848 602.5C856.211 609.713 864.711 616.546 873.5 623C876.406 624.318 879.406 624.652 882.5 624C886.553 621.07 890.053 617.57 893 613.5C901.719 602.448 910.053 591.114 918 579.5C924.296 572.954 930.63 572.954 937 579.5C940.959 587.378 943.293 595.711 944 604.5C948.508 640.308 935.674 667.808 905.5 687C889.025 694.562 871.692 697.896 853.5 697C850.382 698.059 847.382 699.392 844.5 701C826.019 718.651 808.686 737.318 792.5 757C801.451 774.14 802.951 791.973 797 810.5C787.529 840.637 768.696 862.803 740.5 877C723.361 884.411 706.361 884.244 689.5 876.5C679.677 887.159 670.01 897.992 660.5 909C648.967 918.674 635.8 921.841 621 918.5C573.958 935.149 525.458 942.816 475.5 941.5C428.176 942.602 382.843 933.768 339.5 915C329.895 910.285 321.062 904.451 313 897.5C303.93 887.894 300.93 876.561 304 863.5C305.219 842.767 307.052 822.1 309.5 801.5C295.07 805.251 280.404 806.751 265.5 806C258.698 805.467 254.698 801.967 253.5 795.5C202.768 796.399 167.268 773.732 147 727.5C145.648 724.28 144.814 720.947 144.5 717.5C121.44 715.592 104.273 704.592 93 684.5C79.4532 656.702 76.1198 627.702 83 597.5C92.5593 562.429 115.393 543.762 151.5 541.5C150.482 530.519 150.316 519.519 151 508.5C153.156 493.008 160.323 480.508 172.5 471C183.04 464.964 194.04 463.964 205.5 468C214.055 472.227 219.221 479.061 221 488.5C221.51 504.82 222.177 521.153 223 537.5C224.178 541.88 225.512 546.213 227 550.5C236.038 563.245 242.371 577.245 246 592.5C248.49 607.522 247.657 622.355 243.5 637C250.075 645.396 256.408 653.896 262.5 662.5C296.749 651.533 329.082 636.533 359.5 617.5C335.639 603.803 313.306 587.97 292.5 570C267.452 547.741 251.286 520.241 244 487.5C239.476 464.695 241.142 442.362 249 420.5C251.969 412.558 255.969 405.225 261 398.5C261.905 379.511 264.738 360.845 269.5 342.5C251.726 338.199 236.226 329.866 223 317.5C207.378 296.914 209.211 278.08 228.5 261C237.382 255.058 246.716 249.891 256.5 245.5C281.353 176.488 326.02 124.655 390.5 90C410.569 80.1992 431.569 73.1992 453.5 69C463.544 60.8083 474.877 55.6416 487.5 53.5Z" fill="#241713"/>
<path fill-rule="evenodd" clip-rule="evenodd" d="M487.5 670.5C486.432 671.434 485.099 671.768 483.5 671.5C476.345 670.671 469.011 670.171 461.5 670C456.071 669.247 451.071 667.413 446.5 664.5C447.167 663.833 447.833 663.167 448.5 662.5C445.922 662.323 445.922 661.157 448.5 659C447.24 657.887 446.073 657.72 445 658.5C443.833 657.333 442.667 656.167 441.5 655C442.448 654.517 443.448 654.351 444.5 654.5C444.357 652.738 444.691 651.071 445.5 649.5C444.975 648.808 444.308 648.308 443.5 648C445.961 648.073 448.294 647.24 450.5 645.5C453.826 646.047 457.16 646.547 460.5 647C459.167 647.333 457.833 647.667 456.5 648C457.667 648.5 458.5 649.333 459 650.5C461.643 649.647 464.476 649.314 467.5 649.5C468.711 650.274 468.711 651.107 467.5 652C469.895 654.145 472.062 653.978 474 651.5C474.617 650.551 474.451 649.718 473.5 649C469.5 648.667 465.5 648.333 461.5 648C477.189 647.256 492.856 647.589 508.5 649C507.672 649.915 506.672 650.581 505.5 651C507.896 651.879 510.229 652.546 512.5 653C511.833 654.333 511.167 655.667 510.5 657C511.554 658.388 511.72 659.888 511 661.5C503.058 665.925 494.558 668.758 485.5 670C486.094 670.464 486.761 670.631 487.5 670.5Z" fill="#FEA86A"/>
<path fill-rule="evenodd" clip-rule="evenodd" d="M608.5 655.5C643.698 658.064 671.364 673.73 691.5 702.5C692.167 702.833 692.833 703.167 693.5 703.5C699.419 701.875 705.419 701.375 711.5 702C708.305 702.181 705.305 702.681 702.5 703.5C682.483 706.354 669.316 717.354 663 736.5C647.596 743.586 638.596 755.586 636 772.5C627.167 765 619 756.833 611.5 748C604.922 745.243 602.089 747.41 603 754.5C605.523 758.888 608.023 763.222 610.5 767.5C606.022 765.897 601.189 764.23 596 762.5C595.5 762.833 595 763.167 594.5 763.5C597.179 769.522 599.845 775.522 602.5 781.5C589.159 761.467 583.992 739.467 587 715.5C590.898 694.304 598.065 674.304 608.5 655.5Z" fill="#FDA916"/>
<path fill-rule="evenodd" clip-rule="evenodd" d="M487.5 670.5C486.761 670.631 486.094 670.464 485.5 670C494.558 668.758 503.058 665.925 511 661.5C511.72 659.888 511.554 658.388 510.5 657C511.167 655.667 511.833 654.333 512.5 653C510.229 652.546 507.896 651.879 505.5 651C506.672 650.581 507.672 649.915 508.5 649C492.856 647.589 477.189 647.256 461.5 648C465.5 648.333 469.5 648.667 473.5 649C474.451 649.718 474.617 650.551 474 651.5C472.062 653.978 469.895 654.145 467.5 652C468.711 651.107 468.711 650.274 467.5 649.5C464.476 649.314 461.643 649.647 459 650.5C458.5 649.333 457.667 648.5 456.5 648C457.833 647.667 459.167 647.333 460.5 647C457.16 646.547 453.826 646.047 450.5 645.5C448.294 647.24 445.961 648.073 443.5 648C444.308 648.308 444.975 648.808 445.5 649.5C444.691 651.071 444.357 652.738 444.5 654.5C443.448 654.351 442.448 654.517 441.5 655C442.667 656.167 443.833 657.333 445 658.5C446.073 657.72 447.24 657.887 448.5 659C445.922 661.157 445.922 662.323 448.5 662.5C447.833 663.167 447.167 663.833 446.5 664.5C451.071 667.413 456.071 669.247 461.5 670C469.011 670.171 476.345 670.671 483.5 671.5C463.13 675.099 445.963 669.432 432 654.5C429.083 650.249 427.25 645.582 426.5 640.5C463.297 648.156 500.131 648.489 537 641.5C537.667 642.167 537.667 642.833 537 643.5C523.746 658.378 507.246 667.378 487.5 670.5Z" fill="#F6A96B"/>
<path fill-rule="evenodd" clip-rule="evenodd" d="M324.5 722.5C323.903 722.265 323.57 721.765 323.5 721C324.406 718.209 325.073 715.376 325.5 712.5C317.605 714.355 309.938 717.021 302.5 720.5C301.676 723.785 301.176 727.118 301 730.5C300.828 724.319 300.328 718.319 299.5 712.5C299.382 706.409 298.549 700.409 297 694.5C294.794 686.715 292.294 679.049 289.5 671.5C312.134 662.934 333.967 652.601 355 640.5C349.064 654.389 343.064 668.389 337 682.5C332.322 695.699 328.156 709.032 324.5 722.5Z" fill="#FCA816"/>
<path fill-rule="evenodd" clip-rule="evenodd" d="M269.5 679.5C269.687 681.564 270.187 683.564 271 685.5C275.674 693.178 279.507 701.178 282.5 709.5C284.033 727.317 281.867 744.65 276 761.5C274.07 767.196 271.236 772.363 267.5 777C218.251 784.464 183.418 765.631 163 720.5C162.219 719.056 162.386 717.723 163.5 716.5C183.771 712.723 196.938 701.056 203 681.5C204.195 674.06 203.361 666.893 200.5 660C212.158 643.48 213.491 626.147 204.5 608C216.022 582.233 209.355 562.567 184.5 549C180.637 547.268 176.637 545.934 172.5 545C170.562 542.53 169.396 539.696 169 536.5C165.153 519.384 168.153 503.717 178 489.5C186.546 480.212 194.88 480.212 203 489.5C204.065 506.467 205.065 523.467 206 540.5C209.576 554.65 215.576 567.65 224 579.5C234.339 604.768 232.005 628.768 217 651.5C216.077 659.246 219.243 661.746 226.5 659C229.312 657.023 231.978 654.856 234.5 652.5C248.653 668.48 257.153 687.147 260 708.5C263.171 713.414 266.837 713.747 271 709.5C272.058 699.986 271.225 690.653 268.5 681.5C268.543 680.584 268.876 679.917 269.5 679.5Z" fill="#FDC38F"/>
<path fill-rule="evenodd" clip-rule="evenodd" d="M586.5 660.5C581.919 658.934 576.752 658.267 571 658.5C566.918 658.516 562.918 658.849 559 659.5C558.86 657.744 559.36 656.078 560.5 654.5C560.376 653.893 560.043 653.56 559.5 653.5C562.439 647.121 565.773 640.954 569.5 635C580.798 632.346 591.632 628.512 602 623.5C603.92 623.938 605.754 624.605 607.5 625.5C599.245 636.42 592.245 648.087 586.5 660.5Z" fill="#2D556F"/>
<path fill-rule="evenodd" clip-rule="evenodd" d="M180.5 567.5C193.081 574.785 196.081 584.785 189.5 597.5C188.053 596.866 187.387 595.699 187.5 594C190.425 583.436 187.425 575.103 178.5 569C174.952 567.059 171.286 565.393 167.5 564C168.833 563.333 170.167 563.333 171.5 564C174.521 565.18 177.521 566.346 180.5 567.5Z" fill="#F6AE73"/>
<path fill-rule="evenodd" clip-rule="evenodd" d="M617.5 574.5C622.532 578.86 627.865 582.86 633.5 586.5C607.976 603.738 579.976 615.238 549.5 621C532.393 625.018 515.059 627.185 497.5 627.5C529.972 619.271 560.972 607.104 590.5 591C598.61 585.889 606.443 580.389 614 574.5C614.986 575.171 616.153 575.171 617.5 574.5Z" fill="#3597BA"/>
<path fill-rule="evenodd" clip-rule="evenodd" d="M180.5 567.5C177.521 566.346 174.521 565.18 171.5 564C170.167 563.333 168.833 563.333 167.5 564C171.286 565.393 174.952 567.059 178.5 569C187.425 575.103 190.425 583.436 187.5 594C187.387 595.699 188.053 596.866 189.5 597.5C189.44 598.043 189.107 598.376 188.5 598.5C175.236 593.773 161.569 592.273 147.5 594C143.615 594.739 139.948 596.073 136.5 598C133.542 602.552 134.209 606.552 138.5 610C147.771 608.838 157.105 608.505 166.5 609C173.63 610.533 180.63 612.533 187.5 615C195.448 625.945 195.448 636.945 187.5 648C182.482 647.835 177.482 647.168 172.5 646C162.599 644.817 152.933 645.817 143.5 649C138.014 654.081 138.347 658.748 144.5 663C153.016 661.036 161.683 660.37 170.5 661C186.753 663.341 190.92 671.841 183 686.5C167.573 701.811 149.74 705.311 129.5 697C114.707 688.19 105.207 675.357 101 658.5C92.3759 630.216 95.7092 603.549 111 578.5C126.043 562.145 144.543 556.312 166.5 561C171.772 562.133 176.439 564.3 180.5 567.5Z" fill="#FCC38F"/>
<path fill-rule="evenodd" clip-rule="evenodd" d="M772.5 732.5C786.126 717.037 799.96 701.704 814 686.5C815.438 677.253 811.438 671.92 802 670.5C800.373 670.625 798.873 671.125 797.5 672C783.3 686.532 769.466 701.365 756 716.5C755.517 717.448 755.351 718.448 755.5 719.5C751.45 717.896 748.284 715.562 746 712.5C759.667 697.5 773.333 682.5 787 667.5C795.315 652.114 796.648 636.114 791 619.5C789.618 587.874 803.452 565.707 832.5 553C841.891 548.638 851.557 547.638 861.5 550C853.357 560.444 844.857 570.611 836 580.5C828.374 590.81 827.707 601.477 834 612.5C844.642 625.06 857.475 634.56 872.5 641C883.044 643.632 892.044 641.132 899.5 633.5C908.89 623.045 917.556 612.045 925.5 600.5C931.915 630.447 922.582 653.947 897.5 671C890.773 674.131 883.773 676.464 876.5 678C860.224 675.957 845.224 679.29 831.5 688C814.301 705.531 797.467 723.365 781 741.5C777.962 738.631 775.129 735.631 772.5 732.5Z" fill="#FCB925"/>
<path fill-rule="evenodd" clip-rule="evenodd" d="M697.5 533.5C694.556 531.452 691.556 531.285 688.5 533C682.454 540.924 676.287 548.757 670 556.5C664.929 562.076 659.429 567.076 653.5 571.5C640.177 570.092 639.511 566.925 651.5 562C664.057 550.454 674.723 537.454 683.5 523C691.474 518.986 696.474 521.486 698.5 530.5C698.315 531.584 697.982 532.584 697.5 533.5Z" fill="#FBAA6C"/>
<path fill-rule="evenodd" clip-rule="evenodd" d="M702.5 451.5C677.104 468.525 649.437 480.692 619.5 488C618.419 501.259 617.419 514.426 616.5 527.5C616.443 513.821 616.776 500.154 617.5 486.5C632.227 483.313 646.561 478.813 660.5 473C674.71 466.063 688.71 458.896 702.5 451.5Z" fill="#EAC794"/>
<path fill-rule="evenodd" clip-rule="evenodd" d="M617.5 574.5C616.153 575.171 614.986 575.171 614 574.5C606.443 580.389 598.61 585.889 590.5 591C560.972 607.104 529.972 619.271 497.5 627.5C428.856 631.212 369.022 610.545 318 565.5C312.418 549.838 308.084 533.838 305 517.5C303.53 502.861 303.197 488.195 304 473.5C304.117 467.581 305.284 461.914 307.5 456.5C326.433 461.625 345.433 461.792 364.5 457C377.124 453.459 389.457 449.126 401.5 444C425.047 438.044 448.047 439.71 470.5 449C484.5 456.333 498.5 463.667 512.5 471C540.135 483.552 568.968 488.719 599 486.5C599.251 496.497 599.084 506.497 598.5 516.5C596.866 538.597 603.2 557.931 617.5 574.5Z" fill="#5EBDD7"/>
<path fill-rule="evenodd" clip-rule="evenodd" d="M342.5 555.5C358.357 561.254 374.357 566.754 390.5 572C434.189 583.125 478.189 584.458 522.5 576C531.403 573.733 540.236 571.233 549 568.5C554.381 569.685 555.714 572.685 553 577.5C551.59 578.787 550.09 579.954 548.5 581C503.756 596.931 458.089 599.931 411.5 590C387.1 584.367 363.767 575.867 341.5 564.5C338.745 561.18 339.078 558.18 342.5 555.5Z" fill="#3594B7"/>
<path fill-rule="evenodd" clip-rule="evenodd" d="M327.5 493.5C379.193 513.72 432.859 522.553 488.5 520C513.571 518.659 538.404 515.492 563 510.5C566.698 510.359 568.531 512.192 568.5 516C567.909 519.5 565.909 521.833 562.5 523C521.826 533.612 480.493 537.279 438.5 534C399.501 531.661 362.501 521.995 327.5 505C323.555 501.169 323.555 497.336 327.5 493.5Z" fill="#3494B6"/>
<path fill-rule="evenodd" clip-rule="evenodd" d="M264.5 434.5C271.698 442.025 280.032 448.025 289.5 452.5C289.833 453.333 290.167 454.167 290.5 455C284.435 484.417 285.435 513.584 293.5 542.5C293.167 542.833 292.833 543.167 292.5 543.5C263.909 512.137 254.576 475.803 264.5 434.5Z" fill="#FBC390"/>
<path fill-rule="evenodd" clip-rule="evenodd" d="M697.5 533.5C697.982 532.584 698.315 531.584 698.5 530.5C696.474 521.486 691.474 518.986 683.5 523C674.723 537.454 664.057 550.454 651.5 562C639.511 566.925 640.177 570.092 653.5 571.5C648.213 572.593 643.213 571.426 638.5 568C624.508 558.188 617.175 544.688 616.5 527.5C617.419 514.426 618.419 501.259 619.5 488C649.437 480.692 677.104 468.525 702.5 451.5C715.611 441.446 730.278 434.279 746.5 430C775.09 426.588 790.423 439.255 792.5 468C790.971 497.405 777.304 519.071 751.5 533C733.475 541.374 715.475 541.54 697.5 533.5Z" fill="#FDC38F"/>
<path fill-rule="evenodd" clip-rule="evenodd" d="M711.5 505.5C713.722 505.822 715.556 505.155 717 503.5C719.826 497.178 723.159 491.178 727 485.5C729.436 482.553 732.269 480.22 735.5 478.5C739.724 476.452 744.057 474.619 748.5 473C754.845 472.556 761.178 472.723 767.5 473.5C768.396 497.127 757.396 512.294 734.5 519C726.264 520.995 719.098 519.162 713 513.5C710.571 511.13 710.071 508.463 711.5 505.5Z" fill="#FDA96B"/>
<path fill-rule="evenodd" clip-rule="evenodd" d="M735.5 478.5C732.269 480.22 729.436 482.553 727 485.5C723.159 491.178 719.826 497.178 717 503.5C715.556 505.155 713.722 505.822 711.5 505.5C708.264 504.206 706.931 501.706 707.5 498C711.831 477.333 724.165 464 744.5 458C749.833 457.333 755.167 457.333 760.5 458C766.868 459.352 769.702 463.186 769 469.5C767.818 471.357 766.151 472.357 764 472.5C753.435 469.349 743.935 471.349 735.5 478.5Z" fill="#231612"/>
<path fill-rule="evenodd" clip-rule="evenodd" d="M436.5 422.5C446.639 421.686 456.639 423.186 466.5 427C479.445 431.239 491.445 437.072 502.5 444.5C487.098 435.804 470.764 429.304 453.5 425C447.874 423.839 442.207 423.006 436.5 422.5Z" fill="#E6C491"/>
<path fill-rule="evenodd" clip-rule="evenodd" d="M727.5 417.5C727.082 416.778 726.416 416.278 725.5 416C730.096 397.837 724.763 383.17 709.5 372C700.141 367.43 690.308 366.263 680 368.5C679.167 368.333 678.333 368.167 677.5 368C678.416 367.722 679.082 367.222 679.5 366.5C691.79 363.357 703.123 358.023 713.5 350.5C732.248 363.152 749.415 377.819 765 394.5C764.539 400.226 763.039 405.726 760.5 411C749.069 411.237 738.069 413.404 727.5 417.5Z" fill="#62331E"/>
<path fill-rule="evenodd" clip-rule="evenodd" d="M679.5 366.5C679.082 367.222 678.416 367.722 677.5 368C678.333 368.167 679.167 368.333 680 368.5C690.308 366.263 700.141 367.43 709.5 372C724.763 383.17 730.096 397.837 725.5 416C726.416 416.278 727.082 416.778 727.5 417.5C715.426 422.369 704.092 428.536 693.5 436C691.956 437.187 690.289 437.52 688.5 437C677.644 414.696 673.644 391.196 676.5 366.5C677.5 366.5 678.5 366.5 679.5 366.5Z" fill="#743F23"/>
<path fill-rule="evenodd" clip-rule="evenodd" d="M292.5 326.5C293.124 326.917 293.457 327.584 293.5 328.5C287.669 350.156 283.835 372.156 282 394.5C281.51 393.207 281.343 391.873 281.5 390.5C282.848 368.763 286.514 347.429 292.5 326.5Z" fill="#E5C290"/>
<path fill-rule="evenodd" clip-rule="evenodd" d="M505.5 312.5C547.032 321.123 587.032 334.123 625.5 351.5C587.491 335.665 548.325 323.331 508 314.5C506.624 314.316 505.791 313.649 505.5 312.5Z" fill="#EFB272"/>
<path fill-rule="evenodd" clip-rule="evenodd" d="M576.5 347.5C577.492 350.779 577.659 354.112 577 357.5C574.683 360.097 571.85 360.93 568.5 360C555.612 348.549 540.612 344.549 523.5 348C519.547 343.835 519.547 339.669 523.5 335.5C537.958 328.604 552.291 329.104 566.5 337C570.74 339.738 574.074 343.238 576.5 347.5Z" fill="#241612"/>
<path fill-rule="evenodd" clip-rule="evenodd" d="M379.5 296.5C421.955 298.39 463.955 303.724 505.5 312.5C505.791 313.649 506.624 314.316 508 314.5C548.325 323.331 587.491 335.665 625.5 351.5C632.462 353.983 639.128 356.983 645.5 360.5C645.863 362.777 646.863 363.444 648.5 362.5C650.751 363.695 653.085 364.695 655.5 365.5C656.664 372.142 656.831 378.808 656 385.5C632.593 374.047 608.76 363.547 584.5 354C582.866 353.506 581.199 353.34 579.5 353.5C579.31 350.414 578.31 348.414 576.5 347.5C574.074 343.238 570.74 339.738 566.5 337C552.291 329.104 537.958 328.604 523.5 335.5C473.433 324.323 422.766 317.156 371.5 314C369.5 313 367.5 312 365.5 311C367.595 310.444 367.762 309.944 366 309.5C359.537 310.276 353.037 310.776 346.5 311C340.726 312.721 335.06 314.721 329.5 317C318.384 318.257 307.384 320.09 296.5 322.5C296.816 315.135 298.483 307.802 301.5 300.5C310.462 299.288 319.462 298.455 328.5 298C345.672 297.832 362.672 297.332 379.5 296.5Z" fill="#FDA86A"/>
<path fill-rule="evenodd" clip-rule="evenodd" d="M523.5 335.5C519.547 339.669 519.547 343.835 523.5 348C540.612 344.549 555.612 348.549 568.5 360C571.85 360.93 574.683 360.097 577 357.5C577.659 354.112 577.492 350.779 576.5 347.5C578.31 348.414 579.31 350.414 579.5 353.5C581.199 353.34 582.866 353.506 584.5 354C608.76 363.547 632.593 374.047 656 385.5C656.831 378.808 656.664 372.142 655.5 365.5C653.085 364.695 650.751 363.695 648.5 362.5C646.863 363.444 645.863 362.777 645.5 360.5C649.254 361.541 652.92 362.875 656.5 364.5C656.383 388.181 660.216 411.181 668 433.5C670.607 438.206 672.441 442.873 673.5 447.5C653.873 458.431 633.04 466.098 611 470.5C609.112 470.204 607.278 469.704 605.5 469C592.167 468.667 578.833 468.333 565.5 468C560.206 467.545 555.206 466.212 550.5 464C561.979 455.827 568.479 444.661 570 430.5C572.225 417.071 569.558 404.737 562 393.5C549.946 381.162 537.112 380.329 523.5 391C511.183 403.754 506.683 418.92 510 436.5C510.884 441.373 512.384 446.04 514.5 450.5C514.167 450.833 513.833 451.167 513.5 451.5C509.525 449.501 505.859 447.168 502.5 444.5C491.445 437.072 479.445 431.239 466.5 427C456.639 423.186 446.639 421.686 436.5 422.5C418.876 421.937 401.876 424.937 385.5 431.5C385.167 431.167 384.833 430.833 384.5 430.5C394.251 412.525 393.751 394.859 383 377.5C373.062 366.376 361.562 364.542 348.5 372C331.058 389.473 327.225 409.64 337 432.5C338.954 436.282 341.454 439.615 344.5 442.5C338.863 443.663 333.196 443.83 327.5 443C317.923 441.013 308.257 439.68 298.5 439C288.185 434.426 279.685 427.592 273 418.5C272.333 417.5 272.333 416.5 273 415.5C278.402 407.922 281.235 399.588 281.5 390.5C281.343 391.873 281.51 393.207 282 394.5C283.835 372.156 287.669 350.156 293.5 328.5C293.457 327.584 293.124 326.917 292.5 326.5C292.557 325.391 292.89 324.391 293.5 323.5C294.791 323.737 295.791 323.404 296.5 322.5C307.384 320.09 318.384 318.257 329.5 317C335.06 314.721 340.726 312.721 346.5 311C353.037 310.776 359.537 310.276 366 309.5C367.762 309.944 367.595 310.444 365.5 311C367.5 312 369.5 313 371.5 314C422.766 317.156 473.433 324.323 523.5 335.5Z" fill="#FDC390"/>
<path fill-rule="evenodd" clip-rule="evenodd" d="M549.5 398.5C560.995 399.822 564.495 405.822 560 416.5C550.745 422.96 544.912 420.626 542.5 409.5C542.822 404.519 545.155 400.852 549.5 398.5Z" fill="#F7F6F6"/>
<path fill-rule="evenodd" clip-rule="evenodd" d="M369.5 381.5C379.977 381.149 384.144 386.149 382 396.5C379.081 402.025 374.581 403.858 368.5 402C360.185 394.731 360.518 387.898 369.5 381.5Z" fill="#FAF9F9"/>
<path fill-rule="evenodd" clip-rule="evenodd" d="M348.5 311.5C356.944 310.756 364.944 312.256 372.5 316C378.192 318.975 379.858 323.475 377.5 329.5C371.865 332.049 366.198 331.882 360.5 329C350.071 328.029 340.405 330.362 331.5 336C326.996 336.347 324.33 334.18 323.5 329.5C324.942 324.452 327.942 320.618 332.5 318C337.607 314.935 342.94 312.769 348.5 311.5Z" fill="#231712"/>
<path fill-rule="evenodd" clip-rule="evenodd" d="M555.5 304.5C556.601 303.402 557.934 303.235 559.5 304C592.602 313.884 624.602 326.551 655.5 342C662.268 343.047 668.935 343.88 675.5 344.5C669.158 344.666 662.825 344.5 656.5 344C624.084 327.585 590.418 314.418 555.5 304.5Z" fill="#EAC22E"/>
<path fill-rule="evenodd" clip-rule="evenodd" d="M379.5 296.5C362.672 297.332 345.672 297.832 328.5 298C319.462 298.455 310.462 299.288 301.5 300.5C298.483 307.802 296.816 315.135 296.5 322.5C295.791 323.404 294.791 323.737 293.5 323.5C295.291 315.167 297.624 307.001 300.5 299C306.449 297.927 312.449 297.26 318.5 297C338.831 296.5 359.164 296.333 379.5 296.5Z" fill="#E9AE70"/>
<path fill-rule="evenodd" clip-rule="evenodd" d="M272.5 302.5C274.693 301.203 277.027 301.203 279.5 302.5C279.376 303.107 279.043 303.44 278.5 303.5C276.735 302.539 274.735 302.205 272.5 302.5Z" fill="#976715"/>
<path fill-rule="evenodd" clip-rule="evenodd" d="M590.5 282.5C617.221 292.195 642.554 304.528 666.5 319.5C641.235 305.861 615.901 293.528 590.5 282.5Z" fill="#ECC42E"/>
<path fill-rule="evenodd" clip-rule="evenodd" d="M254.5 292.5C250.633 294.696 249.967 297.53 252.5 301C259.05 302.42 265.716 302.92 272.5 302.5C274.735 302.205 276.735 302.539 278.5 303.5C276.809 310.266 274.809 316.933 272.5 323.5C258.552 319.447 246.385 312.447 236 302.5C234.546 299.929 233.38 297.262 232.5 294.5C233.434 293.432 233.768 292.099 233.5 290.5C240.913 289.872 247.913 290.539 254.5 292.5Z" fill="#F9A315"/>
<path fill-rule="evenodd" clip-rule="evenodd" d="M650.5 287.5C617.643 270.217 583.309 256.884 547.5 247.5C554.061 247.245 560.228 248.578 566 251.5C567.762 251.056 567.595 250.556 565.5 250C567.521 249.487 569.021 248.32 570 246.5C570.406 249.766 571.906 250.099 574.5 247.5C570.492 246.869 570.492 245.202 574.5 242.5C575.5 243 576.5 243.5 577.5 244C577.255 246.089 577.255 248.089 577.5 250C575.888 250.72 574.388 250.554 573 249.5C572.219 250.944 572.386 252.277 573.5 253.5C593.096 259.802 612.096 267.468 630.5 276.5C633.32 275.35 633.654 274.184 631.5 273C633.744 270.651 634.911 271.151 635 274.5C635.333 274.167 635.667 273.833 636 273.5C638.455 275.428 638.622 277.262 636.5 279C641.794 281.131 646.461 283.965 650.5 287.5Z" fill="#EFBC2A"/>
<path fill-rule="evenodd" clip-rule="evenodd" d="M346.5 248.5C372.681 248.502 399.015 249.002 425.5 250C422.456 250.359 422.122 251.026 424.5 252C416.401 255.532 416.568 256.032 425 253.5C427.665 256.262 430.665 256.929 434 255.5C435.627 255.625 437.127 256.125 438.5 257C436.023 258.705 434.689 260.705 434.5 263C434.747 264.813 435.08 266.647 435.5 268.5C437.526 267.63 438.859 266.13 439.5 264C438.603 260.882 438.603 257.882 439.5 255C440.803 254.79 442.136 254.957 443.5 255.5C445.029 255.471 446.196 254.804 447 253.5C447.249 254.624 447.749 255.624 448.5 256.5C448.554 255.47 448.888 254.303 449.5 253C475.614 254.683 501.447 258.517 527 264.5C528.07 264.472 528.903 264.139 529.5 263.5C550.348 268.457 570.682 274.791 590.5 282.5C615.901 293.528 641.235 305.861 666.5 319.5C676.282 324.561 685.615 330.394 694.5 337C688.714 340.765 682.38 343.265 675.5 344.5C668.935 343.88 662.268 343.047 655.5 342C624.602 326.551 592.602 313.884 559.5 304C557.934 303.235 556.601 303.402 555.5 304.5C517.339 294.268 478.672 286.601 439.5 281.5C438.486 280.235 436.986 279.569 435 279.5C420.179 278.18 405.346 277.014 390.5 276C370.8 275.181 353.133 275.348 337.5 276.5C313.38 278.685 289.38 282.518 265.5 288C261.603 289.019 257.936 290.519 254.5 292.5C247.913 290.539 240.913 289.872 233.5 290.5C233.768 292.099 233.434 293.432 232.5 294.5C230.972 287.027 233.305 280.861 239.5 276C255.983 266.392 273.649 259.725 292.5 256C310.346 252.353 328.346 249.853 346.5 248.5Z" fill="#FEBA25"/>
<path fill-rule="evenodd" clip-rule="evenodd" d="M439.5 281.5C405.618 277.644 371.618 275.978 337.5 276.5C353.133 275.348 370.8 275.181 390.5 276C405.346 277.014 420.179 278.18 435 279.5C436.986 279.569 438.486 280.235 439.5 281.5Z" fill="#EEC52E"/>
<path fill-rule="evenodd" clip-rule="evenodd" d="M529.5 263.5C528.903 264.139 528.07 264.472 527 264.5C501.447 258.517 475.614 254.683 449.5 253C448.888 254.303 448.554 255.47 448.5 256.5C447.749 255.624 447.249 254.624 447 253.5C446.196 254.804 445.029 255.471 443.5 255.5C442.136 254.957 440.803 254.79 439.5 255C438.603 257.882 438.603 260.882 439.5 264C438.859 266.13 437.526 267.63 435.5 268.5C435.08 266.647 434.747 264.813 434.5 263C434.689 260.705 436.023 258.705 438.5 257C437.127 256.125 435.627 255.625 434 255.5C430.665 256.929 427.665 256.262 425 253.5C416.568 256.032 416.401 255.532 424.5 252C422.122 251.026 422.456 250.359 425.5 250C399.015 249.002 372.681 248.502 346.5 248.5C408.228 244.933 469.228 249.933 529.5 263.5Z" fill="#F7BD28"/>
<path fill-rule="evenodd" clip-rule="evenodd" d="M442.5 229.5C451.055 229.784 459.555 229.784 468 229.5C488.336 234.14 508.836 237.973 529.5 241C527.431 240.676 527.098 239.842 528.5 238.5C529.591 237.112 530.924 236.612 532.5 237C530.109 238.309 530.109 239.309 532.5 240C531.289 240.893 531.289 241.726 532.5 242.5C537.416 243.984 542.416 245.15 547.5 246C546.944 246.383 546.611 246.883 546.5 247.5C512.127 239.022 477.46 233.022 442.5 229.5Z" fill="#E5B82A"/>
<path fill-rule="evenodd" clip-rule="evenodd" d="M650.5 287.5C665.658 286.505 677.158 279.505 685 266.5C706.874 224.866 702.541 186.199 672 150.5C660.77 138.632 647.27 130.466 631.5 126C623.599 125.246 616.266 126.913 609.5 131C600.37 136.651 591.87 143.151 584 150.5C571.88 167.293 560.547 184.626 550 202.5C548.574 204.766 546.74 206.432 544.5 207.5C552.314 173.69 568.98 145.19 594.5 122C603.555 114.956 613.555 109.623 624.5 106C626.833 105.333 629.167 105.333 631.5 106C675.979 121.819 711.813 148.986 739 187.5C780.06 246.734 794.06 311.734 781 382.5C742.659 343.596 699.159 311.929 650.5 287.5Z" fill="#F89319"/>
<path fill-rule="evenodd" clip-rule="evenodd" d="M592.5 82.5C577.862 87.2647 566.362 96.2647 558 109.5C537.834 139.001 527.501 171.667 527 207.5C527.422 209.426 528.589 210.426 530.5 210.5C531.882 215.078 534.882 216.578 539.5 215C541.823 212.83 543.49 210.33 544.5 207.5C546.74 206.432 548.574 204.766 550 202.5C560.547 184.626 571.88 167.293 584 150.5C591.87 143.151 600.37 136.651 609.5 131C616.266 126.913 623.599 125.246 631.5 126C647.27 130.466 660.77 138.632 672 150.5C702.541 186.199 706.874 224.866 685 266.5C677.158 279.505 665.658 286.505 650.5 287.5C646.461 283.965 641.794 281.131 636.5 279C638.622 277.262 638.455 275.428 636 273.5C635.667 273.833 635.333 274.167 635 274.5C634.911 271.151 633.744 270.651 631.5 273C633.654 274.184 633.32 275.35 630.5 276.5C612.096 267.468 593.096 259.802 573.5 253.5C572.386 252.277 572.219 250.944 573 249.5C574.388 250.554 575.888 250.72 577.5 250C577.255 248.089 577.255 246.089 577.5 244C576.5 243.5 575.5 243 574.5 242.5C570.492 245.202 570.492 246.869 574.5 247.5C571.906 250.099 570.406 249.766 570 246.5C569.021 248.32 567.521 249.487 565.5 250C567.595 250.556 567.762 251.056 566 251.5C560.228 248.578 554.061 247.245 547.5 247.5C547.167 247.5 546.833 247.5 546.5 247.5C546.611 246.883 546.944 246.383 547.5 246C542.416 245.15 537.416 243.984 532.5 242.5C531.289 241.726 531.289 240.893 532.5 240C530.109 239.309 530.109 238.309 532.5 237C530.924 236.612 529.591 237.112 528.5 238.5C527.098 239.842 527.431 240.676 529.5 241C508.836 237.973 488.336 234.14 468 229.5C459.555 229.784 451.055 229.784 442.5 229.5C406.486 226.698 370.486 226.865 334.5 230C317.194 232.023 300.028 234.857 283 238.5C303.303 186.133 337.803 144.967 386.5 115C399.895 107.295 413.895 101.295 428.5 97C411.123 126.131 401.623 157.631 400 191.5C401.075 196.084 403.908 198.084 408.5 197.5C410.371 197.141 411.871 196.141 413 194.5C414.126 190.535 415.126 186.535 416 182.5C416.654 183.696 417.154 183.696 417.5 182.5C416.523 178.841 416.69 175.174 418 171.5C420.001 164.828 422.001 158.162 424 151.5C424.414 151.957 424.914 152.291 425.5 152.5C426.262 151.372 426.929 150.205 427.5 149C426.256 148.544 425.423 149.044 425 150.5C425.493 145.677 426.826 141.01 429 136.5C434.016 125.796 439.516 115.462 445.5 105.5C456.134 88.7096 471.134 77.8763 490.5 73C525.024 70.9718 559.024 74.1385 592.5 82.5Z" fill="#FEBA25"/>
<path fill-rule="evenodd" clip-rule="evenodd" d="M445.5 105.5C439.516 115.462 434.016 125.796 429 136.5C426.826 141.01 425.493 145.677 425 150.5C425.423 149.044 426.256 148.544 427.5 149C426.929 150.205 426.262 151.372 425.5 152.5C424.914 152.291 424.414 151.957 424 151.5C422.001 158.162 420.001 164.828 418 171.5C416.69 175.174 416.523 178.841 417.5 182.5C417.154 183.696 416.654 183.696 416 182.5C415.126 186.535 414.126 190.535 413 194.5C411.871 196.141 410.371 197.141 408.5 197.5C409.458 196.038 410.624 194.705 412 193.5C415.808 167.93 423.475 143.596 435 120.5C438.03 115.084 441.53 110.084 445.5 105.5Z" fill="#EBBE2B"/>
<path fill-rule="evenodd" clip-rule="evenodd" d="M378.5 132.5C384.013 131.91 387.347 134.244 388.5 139.5C387.626 145.912 385.126 151.579 381 156.5C372.53 163.969 364.363 171.802 356.5 180C353.833 181.667 351.167 183.333 348.5 185C337.715 188.552 333.549 184.719 336 173.5C343.289 161.2 352.456 150.367 363.5 141C368.27 137.619 373.27 134.786 378.5 132.5Z" fill="#FEE4AC"/>
<path fill-rule="evenodd" clip-rule="evenodd" d="M592.5 82.5C597.958 84.7291 603.292 87.2291 608.5 90C580.161 104.006 559.661 125.506 547 154.5C538.56 172.318 533.06 190.985 530.5 210.5C528.589 210.426 527.422 209.426 527 207.5C527.501 171.667 537.834 139.001 558 109.5C566.362 96.2647 577.862 87.2647 592.5 82.5Z" fill="#F6931A"/>
<path fill-rule="evenodd" clip-rule="evenodd" d="M807.5 649.5C810.794 649.259 813.794 650.092 816.5 652C823.078 657.227 828.078 663.56 831.5 671C830.63 675.536 827.963 677.203 823.5 676C815.52 670.193 809.187 663.026 804.5 654.5C805.092 652.577 806.092 650.911 807.5 649.5Z" fill="#231712"/>
<path fill-rule="evenodd" clip-rule="evenodd" d="M382.5 627.5C389.292 629.431 395.958 631.764 402.5 634.5C386.333 667.833 373.833 702.5 365 738.5C358.224 751.318 348.89 753.651 337 745.5C336.772 742.306 337.439 739.306 339 736.5C347.069 743.445 354.735 743.112 362 735.5C368.557 718.921 363.057 709.921 345.5 708.5C354.877 680.085 367.21 653.085 382.5 627.5Z" fill="#2D5D76"/>
<path fill-rule="evenodd" clip-rule="evenodd" d="M702.5 703.5C705.305 702.681 708.305 702.181 711.5 702C705.419 701.375 699.419 701.875 693.5 703.5C692.833 703.167 692.167 702.833 691.5 702.5C671.364 673.73 643.698 658.064 608.5 655.5C614.077 645.349 620.41 635.682 627.5 626.5C666.903 645.199 701.237 670.699 730.5 703C729.275 704.563 727.775 705.73 726 706.5C718.391 703.892 710.558 702.892 702.5 703.5Z" fill="#F79418"/>
<path fill-rule="evenodd" clip-rule="evenodd" d="M772.5 732.5C766.975 727.913 761.308 723.579 755.5 719.5C755.351 718.448 755.517 717.448 756 716.5C769.466 701.365 783.3 686.532 797.5 672C798.873 671.125 800.373 670.625 802 670.5C811.438 671.92 815.438 677.253 814 686.5C799.96 701.704 786.126 717.037 772.5 732.5Z" fill="#F89419"/>
<path fill-rule="evenodd" clip-rule="evenodd" d="M415.5 660.5C426.266 676.403 441.266 685.57 460.5 688C487.354 691.08 511.521 684.58 533 668.5C527.623 684.483 523.123 700.816 519.5 717.5C511.259 719.036 502.926 719.702 494.5 719.5C478.96 719.341 463.626 718.341 448.5 716.5C450.857 716.663 453.19 716.497 455.5 716C436.73 714.456 418.064 712.123 399.5 709C397.369 708.457 395.369 707.624 393.5 706.5C398.459 689.591 404.792 673.257 412.5 657.5C413.288 658.77 414.288 659.77 415.5 660.5Z" fill="#FCA815"/>
<path fill-rule="evenodd" clip-rule="evenodd" d="M559.5 653.5C560.043 653.56 560.376 653.893 560.5 654.5C559.36 656.078 558.86 657.744 559 659.5C562.918 658.849 566.918 658.516 571 658.5C576.752 658.267 581.919 658.934 586.5 660.5C576.088 684.478 569.255 709.478 566 735.5C562.212 726.444 555.378 722.611 545.5 724C536.526 728.298 534.026 735.132 538 744.5C542.468 751.085 548.635 753.252 556.5 751C559.562 749.939 562.062 748.106 564 745.5C560.937 756.233 553.77 760.066 542.5 757C538.612 754.778 535.779 751.612 534 747.5C535.056 714.162 543.556 682.828 559.5 653.5Z" fill="#2D5D76"/>
<path fill-rule="evenodd" clip-rule="evenodd" d="M282.5 709.5C279.507 701.178 275.674 693.178 271 685.5C270.187 683.564 269.687 681.564 269.5 679.5C270.641 678.661 271.974 677.994 273.5 677.5C278.532 687.595 281.532 698.261 282.5 709.5Z" fill="#F0B44E"/>
<path fill-rule="evenodd" clip-rule="evenodd" d="M415.5 660.5C414.288 659.77 413.288 658.77 412.5 657.5C404.792 673.257 398.459 689.591 393.5 706.5C395.369 707.624 397.369 708.457 399.5 709C418.064 712.123 436.73 714.456 455.5 716C453.19 716.497 450.857 716.663 448.5 716.5C431.369 715.41 414.369 713.243 397.5 710C395.22 709.767 393.22 708.934 391.5 707.5C396.931 688.872 403.931 670.872 412.5 653.5C413.783 655.73 414.783 658.063 415.5 660.5Z" fill="#E5A91A"/>
<path fill-rule="evenodd" clip-rule="evenodd" d="M299.5 712.5C300.328 718.319 300.828 724.319 301 730.5C301.176 727.118 301.676 723.785 302.5 720.5C309.938 717.021 317.605 714.355 325.5 712.5C325.073 715.376 324.406 718.209 323.5 721C323.57 721.765 323.903 722.265 324.5 722.5C319.206 742.548 315.206 762.882 312.5 783.5C302.297 786.339 291.963 787.673 281.5 787.5C292.017 771.449 297.85 753.782 299 734.5C299.5 727.174 299.666 719.841 299.5 712.5Z" fill="#F49419"/>
<path fill-rule="evenodd" clip-rule="evenodd" d="M699.5 720.5C713.365 719.287 726.365 722.12 738.5 729C753.149 736.979 765.316 747.812 775 761.5C783.88 778.306 784.88 795.639 778 813.5C767.633 837.869 750.133 854.703 725.5 864C712.942 867.278 701.276 865.278 690.5 858C683.373 852.541 676.539 846.708 670 840.5C661 829.5 652 818.5 643 807.5C640.833 793.667 646.667 787.833 660.5 790C665.828 791.163 670.828 793.163 675.5 796C681.206 799.847 686.873 803.68 692.5 807.5C697.938 806.289 700.105 802.956 699 797.5C687.171 783.331 672.004 774.998 653.5 772.5C655.271 759.729 662.604 753.396 675.5 753.5C691.461 754.648 705.461 760.481 717.5 771C724.43 771.034 726.93 767.534 725 760.5C712.898 748.198 698.398 740.198 681.5 736.5C685.361 728.632 691.361 723.299 699.5 720.5Z" fill="#FDC38F"/>
<path fill-rule="evenodd" clip-rule="evenodd" d="M271.5 765.5C272.043 765.56 272.376 765.893 272.5 766.5C271.833 767.833 271.167 769.167 270.5 770.5C269.167 770.833 267.833 771.167 266.5 771.5C267.246 772.736 267.579 774.07 267.5 775.5C259.215 776.911 250.881 777.411 242.5 777C251.916 775.195 260.916 772.195 269.5 768C270.381 767.292 271.047 766.458 271.5 765.5Z" fill="#FCAC70"/>
<path fill-rule="evenodd" clip-rule="evenodd" d="M610.5 767.5C616.819 773.823 622.819 780.489 628.5 787.5C626.384 793.317 625.051 799.317 624.5 805.5C614.683 799.687 607.35 791.687 602.5 781.5C599.845 775.522 597.179 769.522 594.5 763.5C595 763.167 595.5 762.833 596 762.5C601.189 764.23 606.022 765.897 610.5 767.5Z" fill="#F59519"/>
<path fill-rule="evenodd" clip-rule="evenodd" d="M585.5 788.5C593.593 802.427 604.593 813.594 618.5 822C608.412 832.231 599.746 843.398 592.5 855.5C592.19 854.262 591.69 854.262 591 855.5C590 851.167 589 846.833 588 842.5C587.667 828.167 587.333 813.833 587 799.5C585.066 795.923 584.566 792.257 585.5 788.5Z" fill="#2E556F"/>
<path fill-rule="evenodd" clip-rule="evenodd" d="M636.5 827.5C638.017 827.511 639.184 828.177 640 829.5C649.706 843.212 660.873 855.712 673.5 867C666.634 874.867 660.134 883.034 654 891.5C639.649 906.109 625.316 906.109 611 891.5C604.684 879.253 605.017 867.253 612 855.5C620.748 846.591 628.915 837.258 636.5 827.5Z" fill="#FAA917"/>
<path fill-rule="evenodd" clip-rule="evenodd" d="M585.5 788.5C584.566 792.257 585.066 795.923 587 799.5C587.333 813.833 587.667 828.167 588 842.5C589 846.833 590 851.167 591 855.5C591.69 854.262 592.19 854.262 592.5 855.5C585.591 874.285 588.591 891.285 601.5 906.5C575.523 915.159 548.856 920.659 521.5 923C472.41 927.659 424.076 923.659 376.5 911C361.283 906.556 346.949 900.222 333.5 892C329 888.833 325.167 885 322 880.5C320.928 877.456 320.428 874.29 320.5 871C322.185 835.167 326.352 799.667 333 764.5C353.339 771.5 369.005 765.833 380 747.5C382.402 740.959 384.402 734.292 386 727.5C386.519 726.484 387.353 725.818 388.5 725.5C430.759 733.948 473.426 737.281 516.5 735.5C514.589 762.754 527.256 776.254 554.5 776C562.519 774.472 569.186 770.639 574.5 764.5C577.628 772.756 581.295 780.756 585.5 788.5Z" fill="#2D5D76"/>
<path fill-rule="evenodd" clip-rule="evenodd" d="M373.5 766.5C396.057 770.27 418.724 773.437 441.5 776C465.489 777.04 489.489 777.706 513.5 778C516.667 779.167 518.833 781.333 520 784.5C521.192 807.301 518.525 829.634 512 851.5C501.623 875.191 483.456 888.024 457.5 890C430.873 894.403 406.54 889.07 384.5 874C371.909 862.651 364.742 848.484 363 831.5C360.775 809.856 363.442 788.856 371 768.5C371.995 767.934 372.828 767.267 373.5 766.5Z" fill="#231713"/>
<path fill-rule="evenodd" clip-rule="evenodd" d="M382.499 784.5C422.732 792.711 463.399 796.044 504.499 794.5C504.513 812.208 502.013 829.541 496.999 846.5C488.508 863.51 474.675 872.676 455.499 874C434.258 877.115 414.591 873.115 396.499 862C383.438 849.357 377.438 833.857 378.499 815.5C378.957 805.04 380.291 794.707 382.499 784.5Z" fill="#2C5D76"/>
<path fill-rule="evenodd" clip-rule="evenodd" d="M630.5 856.5C644.644 856.477 651.478 863.477 651 877.5C646.082 890.535 637.249 894.035 624.5 888C613.7 875.014 615.7 864.514 630.5 856.5Z" fill="#251812"/>
</svg>
